<svg id="Layer_1" data-name="Layer 1" xmlns="http://www.w3.org/2000/svg" viewBox="0 0 1075.86 311.91"><defs><style>.cls-1{fill:#003662;}</style></defs><title>ELCO_Logo_Navy_Horizontal</title><path class="cls-1" d="M391.29,152.7a55.93,55.93,0,0,0,8.77-.63c2.63-.63,3.88-2.38,4.38-6.26.13-.5.25-.63.75-.63l2.76.13c.5,0,.88.25.75.75-.25,1.13-.25,7.76-.25,8.89,0,2.76.38,6.64.5,8.27,0,.5-.25.62-.63.62l-2.63.38c-.37.12-.62-.13-.75-.63-1.25-3.13-2-5-4.63-5.76a32.74,32.74,0,0,0-9-.88v4.14c0,4.38.25,11.64.25,13.27,0,5.51,3.89,5.89,8.65,5.89,5.5,0,9.14,0,12.64-3.13,1-.76,5.39-6.39,7.26-8.77.51-.63.88-.75,1.26-.5l2.38,1.25a.76.76,0,0,1,.37.88l-4.51,13.27c-.25.63-.87,1.25-1.37,1.25-.88,0-7.52-.38-34.82-.38-4.75,0-11.64.38-13.14.38-.63,0-.75-.38-.75-1v-2.88c0-.5.24-.75.87-.75h1.13c5.88,0,6.26-.5,6.26-5v-28.8a79.65,79.65,0,0,0-.25-10.89c-.38-2.63-1.13-3.14-6.14-3.14h-1.25c-.38,0-.5-.25-.5-.87V128a.59.59,0,0,1,.63-.63c1.88,0,8.76.38,14.15.38l28-.13c1.25,0,2.88-.25,3.38-.25.25,0,.5.25.75,1.75.25,1.13,3.76,11.9,4,12.78.12.5.12.75-.13.87l-2,.88a.89.89,0,0,1-1.25-.37c-.5-.51-6.77-7.52-9-9.4a8.06,8.06,0,0,0-4.63-1.62L391.29,132Z"/><path class="cls-1" d="M442.53,148.7c0-5.14-.12-12.4-.25-13.65-.25-2.13-1-2.89-3.13-2.89h-3.88c-.5,0-.63-.37-.63-.87v-3.13a.59.59,0,0,1,.63-.63c.88,0,7.26.38,14.9.38,5,0,12.27-.38,13.15-.38.5,0,.62.25.62.88v3a.71.71,0,0,1-.74.74h-1.88c-4.89,0-5.26.76-5.39,2.63,0,1-.12,12-.12,17.66v6.89c0,1.37,0,17.66.25,20.16,3.63,0,14.77.13,17.9-.25,2-.63,8.52-8.64,10.4-11.77.37-.63.87-.88,1.25-.75l2.13,1c.25.13.25.62.12,1.25s-3.38,13.4-3.88,15.53c-2.13-.12-30.18-.25-37.32-.25-2,0-4.63.13-7,.13s-4.26.24-4.88.24-.75-.24-.75-1.25v-2.63c0-.62.37-.75.87-.75h3.89c2.25,0,3.38-1.12,3.5-2.13,0-2,.25-20,.25-24.79Z"/><path class="cls-1" d="M544.58,147.19c-.5.12-.63-.25-.88-1a22.36,22.36,0,0,0-5.51-9.76,17,17,0,0,0-12.9-5.39c-11.89,0-14.89,12-14.89,19.79,0,7.14.12,12.27,4.12,18.28,5.27,8,9.53,9.27,14.91,9.27,8.26,0,14.77-3.13,17.78-8.39.63-1,1.25-1,1.63-.75L551,170.6c.51.25.26.88-.12,1.63-4,7.51-13,13.4-24.42,13.4-10.52,0-17.66-3.26-21.79-7.14-6.26-5.63-8.89-14.77-8.89-22.79a31.14,31.14,0,0,1,8.39-21.28c3.51-3.89,12.27-8.15,21.29-8.15a32,32,0,0,1,15.4,3.64c1.13.62,2,.62,2.13,0l.38-1.38c.12-.38.5-.63,2-.63s1.88.25,1.88,1.38c0,1.38,1.25,13.15,1.38,16.15.12.63,0,1.26-1,1.26Z"/><path class="cls-1" d="M571.67,180c-4.38-2.89-10.89-11.65-10.89-23.42a29,29,0,0,1,6.89-19.66c7.51-9,15.52-10.64,24.54-10.64,6.13,0,14.15.87,20.28,6.76,5,4.63,9.77,12.39,9.77,23.66,0,6-1.25,12.15-4.88,17.28-5.26,7.65-13.15,11.65-26.18,11.65A34.85,34.85,0,0,1,571.67,180M607.61,157c0-16.4-9.14-25.66-15.78-25.66-2.37,0-7.51.49-10.39,4.25a33.79,33.79,0,0,0-6.26,18.91c0,19.91,11.39,26.17,16.78,26.17,14.15,0,15.65-16.9,15.65-23.67"/><path class="cls-1" d="M659.07,129.69a.58.58,0,0,1,.61-.61c.73,0,7.55.37,10.46.37,3.29,0,7.54-.37,9.13-.37a1.76,1.76,0,0,1,1.7,1.34l17.27,37.33c1.34-3.16,5.59-12,7.66-16.66,1.7-3.89,8.88-19.09,9.37-20.43a2,2,0,0,1,2.06-1.21c14.84,0,17.39-.37,18.24-.37.49,0,.61.37.61,1.1v2.55a.76.76,0,0,1-.85.85h-2.92c-1.94,0-2.43,1.33-2.56,2.55s-.24,19.46-.24,20.92.24,17.64.24,18.73c0,2.31.74,4.26,2.68,4.26h4.26a.57.57,0,0,1,.61.61v3a.77.77,0,0,1-.85.85c-1,0-7.79-.37-12.17-.37-5.47,0-13,.37-13.86.37-.49,0-.73-.37-.73-1.1v-2.67a.64.64,0,0,1,.73-.73h3.28c2.44,0,3.29-1.34,3.29-2.43.12-1.83.24-18.25.24-19.34V138.69h-.73c-1,2.18-8.15,17.51-10.09,21.52-1.59,3-9.61,20.44-10.1,21.29s-1.34,1.82-2.19,1.82A2.49,2.49,0,0,1,692,182c-.37-.61-11.8-25.17-12.65-26.87-1.71-3.41-5.48-12.41-7.06-15.81h-.6c-.13,2.06-.25,15.56-.25,16.41s-.12,17.4,0,18.73c.49,4.38,2.19,5.6,4.75,5.6h2.91c.49,0,.61.36.61,1v2.79a.64.64,0,0,1-.73.74c-.73,0-6.44-.37-10.21-.37-5,0-9.61.37-10.34.37s-.73-.25-.73-1.1v-2.67c0-.49.24-.73.61-.73h2.55a4.64,4.64,0,0,0,4.74-3.29c1.22-5.47,1.46-25.29,1.46-26.63,0-1.1-.12-12.65-.12-13.74,0-1.83,0-2.8-5.11-2.8h-2.19a.58.58,0,0,1-.61-.61Z"/><path class="cls-1" d="M754.31,137.47c0-2.19-.48-3.89-4.13-3.89H748a.65.65,0,0,1-.73-.73v-3.16c0-.37.25-.61.73-.61.73,0,8.51.37,14.47.37,4.75,0,11.92-.37,12.65-.37s.85.24.85.85v2.92a.7.7,0,0,1-.73.73h-1.7c-4.14,0-5.47,1.22-5.59,2.19-.25,1.58-.12,5.72-.12,10.21v4.87c0,4,.24,13.74.24,15.45.12,3.4.85,7.17,2.8,9.72,2.79,3.41,7.17,4.51,10.46,4.51a14,14,0,0,0,9.6-3.53c3.17-2.92,4-7.54,3.89-12.41l-.24-16.66c-.12-6-.24-9.73-.48-11.07-.25-2.06-1.47-3.28-5.36-3.28H787.4c-.49,0-.73-.36-.73-1v-2.8a.7.7,0,0,1,.73-.73c.6,0,7.41.37,11.19.37,3.28,0,8.14-.37,8.87-.37s.85.37.85,1v2.68c0,.49-.24.85-.73.85h-1.09c-4.5,0-4.74,1.95-5.11,3.28-.24,1-.12,10.22-.12,11.56,0,1.09-.24,14.59-.36,17.63-.49,6.33-2.2,11.31-6.7,15-3.28,2.92-8.26,4.62-16.53,4.62-5.84,0-9.73-.48-12.53-1.58-5.47-2.19-8.27-5.47-9.61-10.34-.85-3.53-1.22-8.75-1.22-19.09Z"/><path class="cls-1" d="M853.79,154c0,12.77,0,21.89.12,22.86.25,1.95,1,3.17,2.56,3.17h4.74c.61,0,.85.36.85,1.09v2.67a.74.74,0,0,1-.85.74c-.85,0-8.4-.37-14.48-.37-4.62,0-12.52.37-13.49.37-.73,0-1-.37-1-1.22v-2.43c0-.61.25-.85.73-.85h4.62c1.83,0,2.8-1,2.92-1.95.37-4.62.37-11.07.37-18.24V134.07c-2.55,0-8.64-.13-13.14,1.09-3,2-5.59,5.84-7.17,9-.24.49-.61.85-1.1.73l-2.79-1c-.61-.25-.61-.73-.49-1.22.85-2.67,3.77-12.53,4.26-14.72.24-.85.6-1.21,1.09-1.21a1.62,1.62,0,0,1,1,.36l1,.73c1.58,1.1,2.43,1.22,4.74,1.34,4.26.25,8.88.49,15.93.49h6.08c4.87,0,12.17-.24,17.15-.49a8.06,8.06,0,0,0,4.38-1.09l1.46-1a1.94,1.94,0,0,1,1-.36c.49,0,.73.36,1.09,2.68.25,1.7,2.32,10.45,2.93,13.74.12.48-.13.73-.61,1l-2.68.61c-.73.24-1.1.12-1.34-.49-1.46-3-3.53-7.05-6.08-9-3-1.09-11.31-1.21-13.74-1.21Z"/><path class="cls-1" d="M894,137.47c0-2.19-.49-3.89-4.14-3.89H887.7a.64.64,0,0,1-.73-.73v-3.16c0-.37.24-.61.73-.61.73,0,8.52.37,14.47.37,4.75,0,11.92-.37,12.66-.37s.84.24.84.85v2.92a.7.7,0,0,1-.73.73h-1.7c-4.13,0-5.47,1.22-5.6,2.19-.24,1.58-.12,5.72-.12,10.21v4.87c0,4,.25,13.74.25,15.45.12,3.4.85,7.17,2.8,9.72,2.79,3.41,7.17,4.51,10.45,4.51a14,14,0,0,0,9.61-3.53c3.17-2.92,4-7.54,3.89-12.41l-.24-16.66c-.12-6-.24-9.73-.48-11.07-.25-2.06-1.47-3.28-5.36-3.28h-1.33c-.49,0-.74-.36-.74-1v-2.8a.71.71,0,0,1,.74-.73c.6,0,7.41.37,11.19.37,3.28,0,8.14-.37,8.87-.37s.86.37.86,1v2.68c0,.49-.25.85-.74.85H946.2c-4.5,0-4.74,1.95-5.11,3.28-.24,1-.12,10.22-.12,11.56,0,1.09-.24,14.59-.37,17.63-.48,6.33-2.19,11.31-6.68,15-3.29,2.92-8.28,4.62-16.55,4.62-5.83,0-9.73-.48-12.52-1.58-5.47-2.19-8.27-5.47-9.61-10.34-.85-3.53-1.21-8.75-1.21-19.09Z"/><path class="cls-1" d="M1013.45,180h-2.07a7.15,7.15,0,0,1-5.72-3.29c-.85-1.09-6.08-15.44-7.9-21.52-1.26-4.18-6.36-19.63-8.85-27a79.91,79.91,0,0,1-9.8-.76c-1.56,4.24-11,26.91-11.76,28.46-2.79,6.09-9.36,20.68-10.21,21.66a7.53,7.53,0,0,1-4.75,2.43h-1.46c-.48,0-.72.36-.72.85v2.43c0,.61,0,1.22.48,1.22,1.1,0,7.18-.37,9.49-.37,1.94,0,8.39.37,9.36.37.61,0,.73-.37.73-.85v-2.8a.76.76,0,0,0-.85-.85H967c-2.43,0-3-1.58-2.43-4,.36-1.33,4.13-11.06,4.74-12.52h17.64c.85,2.43,4.13,12.16,4.49,14.23.13,1.21-.24,2.31-1.94,2.31h-2.07a.81.81,0,0,0-.73.85v2.43c0,.61.12,1.22,1,1.22,1.58,0,8.76-.37,11.07-.37,6.81,0,13.26.37,14.72.37.6,0,.85-.49.85-1.1v-2.67a.81.81,0,0,0-.85-.73m-42.33-20.8c.61-1.22,6.94-17.51,7.3-18.49s.73-1.45,1.22-1.45.61.48,1,1.7c.49,1.46,4.87,16.54,5.35,18.24Z"/><path class="cls-1" d="M1031.75,149.63c0-5-.12-12-.23-13.25-.25-2.07-1-2.8-3-2.8h-3.77c-.49,0-.61-.36-.61-.85v-3a.57.57,0,0,1,.61-.61c.85,0,7,.37,14.47.37,4.87,0,11.92-.37,12.77-.37.49,0,.61.24.61.85v2.92a.7.7,0,0,1-.73.73H1050c-4.75,0-5.11.73-5.23,2.55,0,1-.13,11.68-.13,17.15V160c0,1.34,0,17.15.25,19.58,3.52,0,14.35.12,17.39-.24,1.94-.61,8.27-8.39,10.09-11.43.37-.61.85-.86,1.22-.73l2.07,1c.24.12.24.61.12,1.22s-3.29,13-3.77,15.08c-2.07-.13-29.31-.25-36.24-.25-2,0-4.5.12-6.82.12s-4.13.25-4.74.25-.73-.25-.73-1.22v-2.55c0-.61.37-.73.85-.73h3.78c2.18,0,3.28-1.1,3.41-2.07,0-1.95.23-19.46.23-24.08Z"/><polygon class="cls-1" points="511.72 214.96 518.45 214.96 518.45 239.45 533.71 239.45 533.71 245.57 511.72 245.57 511.72 214.96"/><rect class="cls-1" x="543.02" y="214.96" width="6.74" height="30.62"/><polygon class="cls-1" points="561.98 214.96 585.29 214.96 585.29 221.08 568.71 221.08 568.71 227.6 583.32 227.6 583.32 233.72 568.71 233.72 568.71 245.57 561.98 245.57 561.98 214.96"/><polygon class="cls-1" points="595.07 214.96 618.17 214.96 618.17 220.95 601.76 220.95 601.76 227.16 616.2 227.16 616.2 233.15 601.76 233.15 601.76 239.58 618.38 239.58 618.38 245.57 595.07 245.57 595.07 214.96"/><path class="cls-1" d="M663.3,242.59a13.81,13.81,0,0,1-9,3.42c-5.87,0-10.28-3.42-10.28-8.83v-.09c0-3.89,2.1-6.65,6-8.4a10.21,10.21,0,0,1-2.15-6.12v-.09c0-4.2,3.37-8,9.28-8,5.2,0,8.61,3.41,8.61,7.7v.09c0,4.11-2.63,6.52-6.43,8l4.07,4.07c1-1.58,2-3.37,3-5.25l4.94,2.72a58,58,0,0,1-4,6.47l4.51,4.5-4.95,3.46Zm-3.77-3.84-5.87-5.95a4.58,4.58,0,0,0-2.83,4v.09c0,2.14,1.79,3.58,4.28,3.58a7.26,7.26,0,0,0,4.42-1.75m.35-16.13v-.1a2.7,2.7,0,0,0-2.89-2.84,2.88,2.88,0,0,0-3,3.11v.09c0,1.35.53,2.36,1.79,3.8,2.67-1,4.07-2.14,4.07-4.06"/><path class="cls-1" d="M709,214.74h6.21l13.11,30.83h-7l-2.81-6.86H705.57l-2.8,6.86H695.9Zm7.08,18-4.06-9.93L708,232.76Z"/><polygon class="cls-1" points="737.36 214.96 743.57 214.96 757.92 233.81 757.92 214.96 764.57 214.96 764.57 245.57 758.84 245.57 744.01 226.11 744.01 245.57 737.36 245.57 737.36 214.96"/><polygon class="cls-1" points="776.71 214.96 782.92 214.96 797.26 233.81 797.26 214.96 803.91 214.96 803.91 245.57 798.18 245.57 783.35 226.11 783.35 245.57 776.71 245.57 776.71 214.96"/><path class="cls-1" d="M815.7,232.45V215h6.73v17.32c0,5,2.5,7.56,6.61,7.56s6.6-2.49,6.6-7.34V215h6.74v17.28c0,9.26-5.21,13.81-13.43,13.81s-13.25-4.59-13.25-13.6"/><rect class="cls-1" x="854.35" y="214.96" width="6.74" height="30.62"/><polygon class="cls-1" points="879.7 221.17 870.38 221.17 870.38 214.96 895.75 214.96 895.75 221.17 886.44 221.17 886.44 245.58 879.7 245.58 879.7 221.17"/><polygon class="cls-1" points="915.15 233.5 903.39 214.96 911.25 214.96 918.57 227.25 926 214.96 933.65 214.96 921.88 233.37 921.88 245.57 915.15 245.57 915.15 233.5"/><rect class="cls-1" x="442.55" y="198.53" width="560.27" height="3"/><path class="cls-1" d="M289.27,75l-.37-.61A155.82,155.82,0,0,0,156,0C70,0,0,70,0,156s70,156,156,156A155.82,155.82,0,0,0,284.27,244.6V245l4.63-7.53A156,156,0,0,0,289.27,75ZM127,248.37c-.66,0-1.32,0-2,0s-1.45,0-2.18-.06a67,67,0,0,1-9.78-1.17l6.32-21.68-16.25,18.32c-.51-.23-1-.45-1.55-.69a65.82,65.82,0,0,1-7.5-4.57l6.76-17.79L86.49,232.4a46.11,46.11,0,0,1-6.06-7.16c-.5-.71-1-1.43-1.44-2.17l16.35-18.14-21,9.15a53.87,53.87,0,0,1-3.58-14.38l37.53-21.16-21-22.65L45.63,116V97.79l7.18,8V77.57L63.19,92.11V63.5L80.34,86.89l.13-14.57L147.35,140,166,158.86ZM264.77,175h13.65L255.74,193h11.12l-14.13,12.26H156.4l2.9-7.15,33.4-17.73h2.48l3.36,4.67,6.73-13.48c1.82-2.86.27-5.44-3.1-5.44H191.79L180,170.94l-3.25-5.13h8.42l-3-5.69H286.77Z"/></svg>